<?xml version="1.0" encoding="utf-8"?>
<!-- Generator: Adobe Illustrator 16.0.0, SVG Export Plug-In . SVG Version: 6.00 Build 0)  -->
<!DOCTYPE svg PUBLIC "-//W3C//DTD SVG 1.1//EN" "http://www.w3.org/Graphics/SVG/1.1/DTD/svg11.dtd">
<svg version="1.1" id="Calque_1" xmlns="http://www.w3.org/2000/svg" xmlns:xlink="http://www.w3.org/1999/xlink" x="0px" y="0px"
	 width="1200px" height="1200px" viewBox="0 0 1200 1200" enable-background="new 0 0 1200 1200" xml:space="preserve">
<g>
	<path fill="none" d="M347.704,335.218c-14.132,0-25.59-11.455-25.59-25.59c0-5.267,1.601-10.16,4.331-14.232
		c-16.125,3.649-29.901,10.816-40.481,21.396c-47.136,47.136-22.611,151.304,53.55,227.465
		c34.828,34.831,75.591,59.548,115.119,70.841c-42.503-71.115-73.674-172.709-86.865-289.761
		C363.081,331.311,355.883,335.218,347.704,335.218z"/>
	<path fill="none" d="M914.182,316.79c-10.581-10.582-24.358-17.745-40.483-21.394c2.729,4.072,4.328,8.965,4.328,14.232
		c0,14.135-11.46,25.59-25.59,25.59c-8.176,0-15.374-3.907-20.06-9.878c-13.19,117.053-44.367,218.646-86.87,289.761
		c39.53-11.296,80.287-36.01,115.116-70.841C936.789,468.096,961.314,363.928,914.182,316.79z"/>
	<path fill="#3f8cd4" d="M661.016,728.088v-22.669c16.146-9.26,31.647-22.018,46.268-38.045
		c62.113-2.662,130.873-36.147,185.594-90.867c96.869-96.874,120.394-225.12,53.551-291.965
		c-20.941-20.942-48.785-33.38-81.171-36.636l10.721-26.722c1.222-1.571,1.183-3.489-0.093-5.039
		c-1.283-1.553-3.616-2.497-6.139-2.497c-142.223,0-396.574,0-538.813,0c-2.517,0-4.848,0.95-6.126,2.5
		c-1.284,1.55-1.321,3.465-0.1,5.036l10.177,26.722c-32.382,3.255-60.229,15.695-81.172,36.638
		c-66.84,66.844-43.318,195.09,53.553,291.96c54.716,54.717,123.479,88.204,185.594,90.87c14.623,16.027,30.12,28.781,46.268,38.041
		v22.673c0,7.862,7.575,14.296,16.847,14.296h5.752c-4.714,42.217-32.836,95.315-66.643,123.423l-35.993,29.936
		c-26.806,0-54.421,0-83.476,0c-6.326,0-12.176,3.442-15.244,8.977l-38.009,68.605c-1.476,2.654-1.43,5.893,0.113,8.508
		c1.543,2.617,4.352,4.213,7.391,4.213c164.43,0,375.958,0,540.413,0c3.034,0,5.844-1.603,7.385-4.217
		c1.541-2.615,1.59-5.85,0.119-8.504l-38.009-68.605c-3.073-5.541-8.913-8.977-15.247-8.977c-29.264,0-56.867,0-83.471,0
		l-35.996-29.936c-33.806-28.107-61.926-81.206-66.642-123.423h5.75C653.438,742.384,661.016,735.95,661.016,728.088z
		 M832.377,325.34c4.686,5.971,11.884,9.878,20.06,9.878c14.13,0,25.59-11.455,25.59-25.59c0-5.267-1.599-10.16-4.328-14.232
		c16.125,3.649,29.902,10.812,40.483,21.394c47.133,47.138,22.607,151.306-53.559,227.47
		c-34.829,34.831-75.586,59.545-115.116,70.841C788.01,543.985,819.187,442.393,832.377,325.34z M339.514,544.257
		c-76.161-76.161-100.686-180.329-53.55-227.465c10.58-10.58,24.356-17.747,40.481-21.396c-2.73,4.072-4.331,8.965-4.331,14.232
		c0,14.135,11.458,25.59,25.59,25.59c8.179,0,15.377-3.907,20.063-9.881c13.191,117.052,44.362,218.646,86.865,289.761
		C415.104,603.805,374.342,579.088,339.514,544.257z"/>
</g>
</svg>
