<?xml version="1.0" encoding="utf-8"?>
<!-- Generator: Adobe Illustrator 16.0.0, SVG Export Plug-In . SVG Version: 6.00 Build 0)  -->
<!DOCTYPE svg PUBLIC "-//W3C//DTD SVG 1.1//EN" "http://www.w3.org/Graphics/SVG/1.1/DTD/svg11.dtd">
<svg version="1.1" id="Calque_1" xmlns="http://www.w3.org/2000/svg" xmlns:xlink="http://www.w3.org/1999/xlink" x="0px" y="0px"
	 width="1200px" height="1200px" viewBox="0 0 1200 1200" enable-background="new 0 0 1200 1200" xml:space="preserve">
<g>
	<path fill="#3f8cd4" d="M717.283,887.236c66.291-8.989,51.125-37.262,72.543-98.654
		C763.241,787.32,707.166,838.224,717.283,887.236z"/>
	<path fill="#3f8cd4" d="M732.746,906.974c14.238,44.779,83.571,60.669,104.749,47.412
		C791.741,913.973,791.157,883.851,732.746,906.974z"/>
	<path fill="#3f8cd4" d="M794,878.281c23.239,42.025,95.911,44.074,114.48,26.532C854.524,873.483,847.91,843.408,794,878.281z"/>
	<path fill="#3f8cd4" d="M807.829,835.69c55.247-25.476,34.523-46.005,36.795-105.075
		C821.18,736.592,785.974,795.797,807.829,835.69z"/>
	<path fill="#3f8cd4" d="M847.565,836.939c30.781,32.714,97.113,17.752,109.887-2.439
		C901.306,818.586,888.353,792.854,847.565,836.939z"/>
	<path fill="#3f8cd4" d="M875.177,763.177c39.685-40.606,14.775-51.628-2.924-103.874
		C853.8,672.309,842.831,735.658,875.177,763.177z"/>
	<path fill="#3f8cd4" d="M887.114,783.164c30.776,32.708,97.114,17.746,109.888-2.44
		C940.855,764.805,927.908,739.078,887.114,783.164z"/>
	<path fill="#3f8cd4" d="M919.374,686.179c25.394-53.753-3.024-56.14-38.411-101.804C867.15,603.565,877.95,670.021,919.374,686.179
		z"/>
	<path fill="#3f8cd4" d="M923.729,733.102c36.986,25.498,98.672-3.112,106.903-25.533
		C972.396,703.844,954.305,681.428,923.729,733.102z"/>
	<path fill="#3f8cd4" d="M948.667,682.548c44.248,7.758,88.398-43.957,86.536-67.774
		C980.715,635.66,954.931,622.824,948.667,682.548z"/>
	<path fill="#3f8cd4" d="M889.917,513.766c-10.857,20.808,9.106,84.566,52.088,94.627
		C959.372,551.988,931.119,553.654,889.917,513.766z"/>
	<path fill="#3f8cd4" d="M966.016,614.376c42.24,0.222,75.042-54.677,69.566-76.466C988.35,565.854,962.419,558.006,966.016,614.376
		z"/>
	<path fill="#3f8cd4" d="M968.246,553.015c39.905-6.205,62.52-63,54.044-82.73C981.953,503.83,956.29,500.357,968.246,553.015z"/>
	<path fill="#3f8cd4" d="M884.99,456.14c-6.036,17.863,17.746,65.982,53.099,68.612C944.859,477.835,922.643,482.669,884.99,456.14z
		"/>
	<path fill="#3f8cd4" d="M959.91,492.497c36.589-12.84,48.008-70.428,36.548-87.573C964.241,443.659,939.408,444.879,959.91,492.497
		z"/>
	<path fill="#3f8cd4" d="M864.267,398.251c-4.022,18.423,24.927,63.616,60.36,62.325
		C926.169,413.196,904.628,420.455,864.267,398.251z"/>
	<path fill="#3f8cd4" d="M937.587,432.446c32.259-11.328,42.334-62.092,32.229-77.208
		C941.416,389.394,919.52,390.464,937.587,432.446z"/>
	<path fill="#3f8cd4" d="M918.316,298.415c-14.501,41.975-34.604,50.72-2.866,83.603
		C941.626,360.027,933.115,308.983,918.316,298.415z"/>
	<path fill="#3f8cd4" d="M822.808,347.263c-0.058,17.002,34.021,51.342,65.02,43.487
		C880.204,348.699,862.598,359.184,822.808,347.263z"/>
	<path fill="#3f8cd4" d="M784.396,299.375c1.583,16.923,38.797,47.842,68.884,37.045
		C841.663,295.294,825.138,307.416,784.396,299.375z"/>
	<path fill="#3f8cd4" d="M882.526,252.99c-13.917,40.273-33.198,48.653-2.743,80.197
		C904.885,312.098,896.712,263.135,882.526,252.99z"/>
	<path fill="#3f8cd4" d="M846.964,289.3c19.86-26.095,1.127-72.068-14.944-78.843C827.292,252.806,810.327,265.213,846.964,289.3z"
		/>
	<path fill="#3f8cd4" d="M499.546,887.236c10.12-49.007-45.971-99.916-72.552-98.654
		C448.418,849.969,433.246,878.247,499.546,887.236z"/>
	<path fill="#3f8cd4" d="M379.327,951.298c21.179,13.263,90.509-2.633,104.747-47.413
		C425.66,880.757,425.088,910.879,379.327,951.298z"/>
	<path fill="#3f8cd4" d="M425.917,873.652c-53.913-34.88-60.524-4.805-114.478,26.532C330,917.708,402.672,915.678,425.917,873.652z
		"/>
	<path fill="#3f8cd4" d="M410.544,834.149c21.853-39.905-13.342-99.099-36.794-105.076
		C376.017,788.139,355.303,808.674,410.544,834.149z"/>
	<path fill="#3f8cd4" d="M369.261,836.939c-40.79-44.086-53.744-18.354-109.887-2.439
		C272.144,854.691,338.47,869.653,369.261,836.939z"/>
	<path fill="#3f8cd4" d="M344.568,659.303c-17.7,52.246-42.603,63.268-2.922,103.874
		C373.995,735.658,363.021,672.309,344.568,659.303z"/>
	<path fill="#3f8cd4" d="M329.714,783.164c-40.793-44.086-53.74-18.359-109.89-2.44C232.6,800.91,298.923,815.872,329.714,783.164z"
		/>
	<path fill="#3f8cd4" d="M335.858,584.369c-35.381,45.67-63.793,48.045-38.405,101.804
		C338.871,670.021,349.667,603.565,335.858,584.369z"/>
	<path fill="#3f8cd4" d="M293.095,733.102c-30.584-51.681-48.666-29.264-106.907-25.533
		C194.419,729.989,256.111,758.6,293.095,733.102z"/>
	<path fill="#3f8cd4" d="M268.157,682.548c-6.267-59.724-32.042-46.888-86.54-67.774
		C179.758,638.597,223.908,690.306,268.157,682.548z"/>
	<path fill="#3f8cd4" d="M279.452,608.393c42.979-10.054,62.953-73.819,52.083-94.627
		C290.34,553.654,262.088,551.988,279.452,608.393z"/>
	<path fill="#3f8cd4" d="M250.802,614.376c3.599-56.37-22.326-48.521-69.561-76.466
		C175.765,559.699,208.564,614.598,250.802,614.376z"/>
	<path fill="#3f8cd4" d="M248.577,553.015c11.949-52.658-13.707-49.185-54.05-82.73C186.045,490.015,208.672,546.81,248.577,553.015
		z"/>
	<path fill="#3f8cd4" d="M278.734,524.752c35.358-2.63,59.138-50.75,53.102-68.612C294.175,482.669,271.962,477.835,278.734,524.752
		z"/>
	<path fill="#3f8cd4" d="M256.91,492.497c20.505-47.624-4.328-48.838-36.546-87.573C208.911,422.075,220.32,479.657,256.91,492.497z
		"/>
	<path fill="#3f8cd4" d="M355.645,398.251c-40.355,22.204-61.905,14.944-60.363,62.325
		C330.724,461.867,359.666,416.675,355.645,398.251z"/>
	<path fill="#3f8cd4" d="M279.225,432.446c18.079-41.981-3.817-43.058-32.218-77.208
		C236.905,370.359,246.969,421.124,279.225,432.446z"/>
	<path fill="#3f8cd4" d="M301.366,382.018c31.748-32.883,11.64-41.628-2.863-83.603
		C283.713,308.983,275.191,360.027,301.366,382.018z"/>
	<path fill="#3f8cd4" d="M394.015,347.263c-39.78,11.92-57.392,1.436-65.013,43.487C359.984,398.605,394.07,364.266,394.015,347.263
		z"/>
	<path fill="#3f8cd4" d="M438.608,297.828c-40.744,8.047-57.266-4.084-68.886,37.045
		C399.814,345.667,437.038,314.751,438.608,297.828z"/>
	<path fill="#3f8cd4" d="M337.048,333.187c30.449-31.544,11.165-39.924-2.744-80.197
		C320.114,263.135,311.936,312.098,337.048,333.187z"/>
	<path fill="#3f8cd4" d="M384.797,210.457c-16.067,6.774-34.801,52.748-14.938,78.843
		C406.496,265.213,389.525,252.806,384.797,210.457z"/>
	<path fill="#3f8cd4" d="M681.2,945.922c-9.422-4.046-18.844-9.638-29.404-13.176c-5.376-1.81-14.086-6.117-21.826-8.973
		c87.82-5.02,166.931-43.822,225.284-104.066C917.867,755.062,956.6,665.771,956.6,567.136c0-98.626-38.732-187.927-101.346-252.572
		c-13.299-13.724-27.729-26.275-43.029-37.629c-4.851-53.977-29.637-43.192-79.975-64.14c-2.318,21.771,35.405,69.234,75.987,66.837
		c15.593,11.458,30.273,24.156,43.776,38.09c61.813,63.822,100.051,152.004,100.051,249.425c0,97.419-38.237,185.602-100.051,249.43
		c-61.803,63.805-147.183,103.268-241.483,103.268c-94.3,0-179.68-39.469-241.477-103.268
		c-61.829-63.84-100.062-152.022-100.062-249.442c0-97.415,38.233-185.603,100.057-249.425
		c13.412-13.853,28.006-26.471,43.487-37.868c39.05-0.742,74.289-45.989,72.042-67.054c-51.084,21.257-75.862,9.781-80.197,66.562
		c0.342,0.047,0.683,0.024,1.024,0.065c-14.048,10.688-27.285,22.433-39.597,35.142c-62.616,64.651-101.346,153.951-101.346,252.578
		c0,98.623,38.729,187.926,101.346,252.571c58.049,59.929,136.649,98.621,223.936,103.968
		c-31.216,10.053-101.288,47.173-101.288,56.963c0,2.709,2.143,3.316,3.786,4.729h8.511c8.374-5.814,15.041-13.064,23.481-19.089
		c6.807-4.875,18.716-12.248,26.085-16.497c7.276-4.196,44.386-22.633,56.638-25.504c1.198,0.011,2.371,0.099,3.562,0.099
		c1.162,0,2.3-0.082,3.45-0.093c11.92,2.889,49.76,21.459,56.753,25.498c6.958,4.01,20.018,11.886,26.1,16.479
		c8.249,6.229,15.073,13.28,23.467,19.106h8.518c1.641-1.412,3.788-2.02,3.788-4.729C732.594,974.38,689.606,949.536,681.2,945.922z
		"/>
</g>
</svg>
