<?xml version="1.0" encoding="utf-8"?>
<!-- Generator: Adobe Illustrator 16.0.0, SVG Export Plug-In . SVG Version: 6.00 Build 0)  -->
<!DOCTYPE svg PUBLIC "-//W3C//DTD SVG 1.1//EN" "http://www.w3.org/Graphics/SVG/1.1/DTD/svg11.dtd">
<svg version="1.1" id="Calque_1" xmlns="http://www.w3.org/2000/svg" xmlns:xlink="http://www.w3.org/1999/xlink" x="0px" y="0px"
	 width="1200px" height="1200px" viewBox="0 0 1200 1200" enable-background="new 0 0 1200 1200" xml:space="preserve">
<path fill="#3f8cd4" d="M711.432,500.151l171.21-283.984H710.029l-92.57,145.708l75.396,131.911
	c-7.876-2.357-15.913-4.336-24.091-5.917L513.467,216.167H361.57l163.606,286.242c-90.712,37.734-154.661,127.283-154.661,231.497
	c0,138.186,112.417,250.601,250.598,250.601c138.174,0,250.601-112.416,250.601-250.601
	C871.715,627.554,805.11,536.474,711.432,500.151z M762.102,711.382l-59.15,57.654l13.96,81.414
	c2.945,17.17-7.262,24.584-22.682,16.48l-73.115-38.44l-73.123,38.44c-15.419,8.104-25.626,0.689-22.68-16.48l13.968-81.414
	l-59.15-57.654c-12.47-12.163-8.573-24.159,8.664-26.669l81.752-11.881l36.557-74.073c7.707-15.62,20.323-15.624,28.033-0.004
	l36.56,74.078l81.744,11.881C770.674,687.223,774.57,699.219,762.102,711.382z"/>
</svg>
